<?xml version="1.0" encoding="UTF-8" standalone="no"?>
<svg
   xmlns:dc="http://purl.org/dc/elements/1.1/"
   xmlns:cc="http://creativecommons.org/ns#"
   xmlns:rdf="http://www.w3.org/1999/02/22-rdf-syntax-ns#"
   xmlns:svg="http://www.w3.org/2000/svg"
   xmlns="http://www.w3.org/2000/svg"
   xmlns:sodipodi="http://sodipodi.sourceforge.net/DTD/sodipodi-0.dtd"
   xmlns:inkscape="http://www.inkscape.org/namespaces/inkscape"
   width="276.23083"
   height="200"
   viewBox="0 0 21.29806 15.42048"
   version="1.1"
   id="svg58"
   sodipodi:docname="ole.svg"
   inkscape:version="1.0.1 (3bc2e813f5, 2020-09-07)">
  <metadata
     id="metadata64">
    <rdf:RDF>
      <cc:Work
         rdf:about="">
        <dc:format>image/svg+xml</dc:format>
        <dc:type
           rdf:resource="http://purl.org/dc/dcmitype/StillImage" />
      </cc:Work>
    </rdf:RDF>
  </metadata>
  <defs
     id="defs62" />
  <sodipodi:namedview
     pagecolor="#ffffff"
     bordercolor="#666666"
     borderopacity="1"
     objecttolerance="10"
     gridtolerance="10"
     guidetolerance="10"
     inkscape:pageopacity="0"
     inkscape:pageshadow="2"
     inkscape:window-width="1360"
     inkscape:window-height="706"
     id="namedview60"
     showgrid="false"
     inkscape:zoom="1"
     inkscape:cx="9.4767181"
     inkscape:cy="129.98218"
     inkscape:window-x="-8"
     inkscape:window-y="-8"
     inkscape:window-maximized="1"
     inkscape:current-layer="g56" />
  <g
     fill-rule="evenodd"
     clip-rule="evenodd"
     id="g56"
     transform="translate(-26.262,-31.046)">
    <path
       fill="#4eaa55"
       d="M 26.262,31.046 H 44.255682 V 46.46648 H 26.262 Z"
       id="path40"
       style="stroke-width:0.149831" />
    <path
       d="m 37.993785,38.604836 c 0,-1.547907 0.892245,-2.458281 2.476561,-2.458281 1.365711,0 2.49469,0.582693 2.49469,2.276236 v 2.950027 h -3.259429 v 1.948405 c 0,0.855986 0.291122,1.092719 0.837557,1.092719 0.637382,0 0.819427,-0.455337 0.819427,-1.183667 v -0.837556 h 1.602445 v 1.292894 c 0,0.928504 -0.655512,1.820749 -2.549529,1.820749 -1.292893,0 -2.421872,-0.582694 -2.421872,-2.276087 v -4.625439 z m 1.711972,1.566036 h 1.656983 v -1.78449 c 0,-0.819577 -0.236733,-1.147258 -0.819427,-1.147258 -0.637382,0 -0.837556,0.34596 -0.837556,1.001622 z M 27.527475,35.570753 c 0,-1.839178 0.600973,-3.459902 3.077533,-3.459902 2.349054,0 3.095663,1.220075 3.095663,3.259578 v 6.646663 c 0,1.839178 -0.600973,3.459903 -3.095663,3.459903 -2.330924,0 -3.077533,-1.220076 -3.077533,-3.259728 z m 1.821048,6.75604 c 0,1.128978 0.509876,1.729802 1.256485,1.729802 0.764888,0 1.274614,-0.600824 1.274614,-1.729802 v -6.901676 c 0,-1.292893 -0.437057,-1.893866 -1.274614,-1.893866 -0.819427,0 -1.256485,0.600973 -1.256485,1.893866 z"
       fill="#ffffff"
       id="path42"
       style="stroke-width:0.149831" />
    <path
       d="m 43.105427,32.370808 -2.913618,2.604066 h -1.183666 l 1.638854,-2.604066 z"
       id="path44"
       style="stroke-width:0.149831" />
    <path
       fill="#e5a430"
       d="m 46.45895,31.046 h 1.10111 v 15.42048 h -1.10111 z"
       id="path46"
       style="stroke-width:0.149831" />
    <path
       fill="#ffffff"
       d="m 35.02398,32.220078 h 1.711672 v 13.14784 H 35.02398 Z"
       id="path48"
       style="stroke-width:0.149831" />
    <path
       d="M 44.255682,31.046 H 46.45895 V 46.46648 H 44.255682 Z"
       id="path50"
       style="stroke-width:0.149831" />
    <path
       d="m 45.687469,44.865384 v 0.0061 c 0.09454,0.04015 0.137845,0.148632 0.137845,0.258459 0,0.2213 -0.215158,0.325133 -0.40859,0.325133 -0.206018,0 -0.414733,-0.103833 -0.414733,-0.334423 0,-0.09739 0.03401,-0.19493 0.114471,-0.252316 v -0.003 h -0.431963 v -0.294119 h 1.117591 v 0.286178 z M 45.413577,32.271769 c 0.286478,0 0.411737,0.209015 0.411737,0.452041 0,0.242877 -0.125259,0.451891 -0.411737,0.451891 -0.286177,0 -0.411436,-0.209014 -0.411436,-0.451891 0,-0.243026 0.125259,-0.452041 0.411436,-0.452041 z m 0.388663,2.318339 h -0.777025 v -0.293969 h 0.777025 z m -0.388663,1.653088 c 0.286478,0 0.411737,0.209014 0.411737,0.452041 0,0.243026 -0.125259,0.451891 -0.411737,0.451891 -0.286177,0 -0.411436,-0.209015 -0.411436,-0.451891 0,-0.243176 0.125259,-0.452041 0.411436,-0.452041 z m -0.278536,1.620724 v -0.003 c -0.09125,-0.05888 -0.1329,-0.137695 -0.1329,-0.252316 0,-0.23059 0.196429,-0.331127 0.400649,-0.331127 0.227743,0 0.422524,0.114621 0.422524,0.36379 0,0.08675 -0.04795,0.165564 -0.11612,0.219802 v 0.0031 h 0.390161 v 0.294119 h -1.07399 V 37.86392 Z m 0.33742,0.996827 c 0.100687,0.0016 0.187289,-0.02472 0.187289,-0.134548 0,-0.08196 -0.03866,-0.13305 -0.111474,-0.143838 v -0.272393 c 0.100686,0.0093 0.173504,0.07282 0.216806,0.146984 0.0433,0.06817 0.06023,0.154776 0.06023,0.246173 0,0.31105 -0.1332,0.43481 -0.438107,0.43481 -0.246173,0 -0.385066,-0.184142 -0.385066,-0.417879 0,-0.315695 0.180846,-0.416381 0.47032,-0.416381 z m 0.215008,0.709152 v 0.0061 c 0.09454,0.0403 0.137845,0.148632 0.137845,0.258608 0,0.221301 -0.215158,0.324984 -0.40859,0.324984 -0.206018,0 -0.414733,-0.103683 -0.414733,-0.334273 0,-0.09739 0.03401,-0.194931 0.114471,-0.252166 v -0.0031 H 44.684499 V 39.27608 h 1.117591 v 0.286327 z m -0.273892,1.283754 c 0.286478,0 0.411737,0.209014 0.411737,0.45219 0,0.242877 -0.125259,0.451891 -0.411737,0.451891 -0.286177,0 -0.411436,-0.209014 -0.411436,-0.451891 0,-0.243326 0.125259,-0.45219 0.411436,-0.45219 z m 0.388663,1.372753 h -0.777025 v -0.294118 h 0.777025 z m 0,1.160593 c -0.02487,0.0064 -0.04974,0.0064 -0.105332,0.0064 v 0.003 c 0.05559,0.03566 0.128406,0.102185 0.128406,0.247522 0,0.184292 -0.09889,0.280334 -0.258459,0.277187 -0.188788,-0.003 -0.26625,-0.176501 -0.26625,-0.430165 v -0.09305 c -0.06787,0 -0.167062,-0.01558 -0.162417,0.102185 0.003,0.07147 0.07252,0.09454 0.119115,0.09305 v 0.276888 c -0.109676,0.0018 -0.173204,-0.05559 -0.209014,-0.134549 -0.03716,-0.08046 -0.0463,-0.180846 -0.0463,-0.267448 0,-0.158072 0.06638,-0.348208 0.241378,-0.345361 h 0.399151 c 0.03251,0 0.06638,-0.0061 0.15942,-0.01693 v 0.281233 z m 0,0.987388 h -0.777025 v -0.294119 h 0.777025 z m -0.388663,0.778673 c 0.102185,0 0.241379,-0.02307 0.241379,-0.143988 0,-0.120614 -0.139343,-0.143688 -0.241379,-0.143688 -0.103533,0 -0.241378,0.01528 -0.241378,0.143688 0,0.128405 0.137845,0.143988 0.241378,0.143988 z m 0.241528,-12.42925 c 0,-0.12391 -0.131402,-0.150131 -0.241378,-0.150131 -0.109676,0 -0.241378,0.02622 -0.241378,0.150131 0,0.123761 0.131702,0.149981 0.241378,0.149981 0.109976,0 0.241378,-0.02637 0.241378,-0.149981 z m 0.147135,1.146808 -0.777025,0.295617 v -0.312548 l 0.544636,-0.153127 v -0.0031 l -0.544636,-0.164065 v -0.273891 l 0.777025,0.293969 z m -0.910075,0.720988 h -0.207516 v -0.297115 h 0.207516 z m 0.13305,0.625246 h -0.117618 l -0.111474,-0.294119 h 0.229092 v -0.170208 h 0.185491 v 0.170208 h 0.308203 c 0.02023,0 0.120614,0.01244 0.120614,-0.05574 0,-0.03866 0,-0.07896 -0.0046,-0.112973 h 0.175003 a 0.80908863,0.80908863 0 0 1 0.01558,0.157773 c 0,0.199725 -0.02787,0.320489 -0.26625,0.304906 h -0.348207 v 0.151629 h -0.185491 v -0.151479 z m 0.145486,0.565763 v -0.0031 c -0.128405,-0.03416 -0.171707,-0.129904 -0.16856,-0.259957 h 0.249019 c -0.0015,0.02173 -0.0015,0.0418 -0.0015,0.06188 0.0015,0.153278 0.09275,0.205868 0.241378,0.201224 h 0.31105 v 0.294118 h -0.57745 c -0.06967,0 -0.116119,0.0015 -0.199575,0.0093 v -0.298764 z m 0.484404,0.912622 c 0,-0.123761 -0.131402,-0.150131 -0.241378,-0.150131 -0.109676,0 -0.241378,0.02637 -0.241378,0.150131 0,0.12376 0.131702,0.150131 0.241378,0.150131 0.109976,-1.5e-4 0.241378,-0.02637 0.241378,-0.150131 z m -0.241528,1.168683 c 0.09919,0 0.241379,-0.01858 0.241379,-0.142339 0,-0.123761 -0.14219,-0.14234 -0.241379,-0.14234 -0.09889,0 -0.241378,0.01858 -0.241378,0.14234 0,0.12376 0.14249,0.142339 0.241378,0.142339 z m -0.09889,0.718291 c -0.0418,0 -0.08376,0.01244 -0.116119,0.03566 a 0.11087511,0.11087511 0 0 0 -0.04944,0.102185 c 0.0046,0.102185 0.07731,0.126907 0.165564,0.134548 z m 0.09889,1.275513 c 0.102185,0 0.241379,-0.02322 0.241379,-0.143838 0,-0.120614 -0.139343,-0.143987 -0.241379,-0.143987 -0.103533,0 -0.241378,0.01558 -0.241378,0.143987 0,0.128406 0.137845,0.143838 0.241378,0.143838 z m 0.241528,1.447969 c 0,-0.12376 -0.131402,-0.150131 -0.241378,-0.150131 -0.109676,0 -0.241378,0.02637 -0.241378,0.150131 0,0.123761 0.131702,0.150131 0.241378,0.150131 0.109976,0 0.241378,-0.02622 0.241378,-0.150131 z m -0.76294,0.922212 h -0.207516 v -0.296966 h 0.207516 z m 0.278536,0.400948 v -0.0031 c -0.128405,-0.03401 -0.171707,-0.129903 -0.16856,-0.259807 h 0.249019 c -0.0015,0.02173 -0.0015,0.0418 -0.0015,0.06173 0.0015,0.153277 0.09275,0.206018 0.241378,0.201373 h 0.31105 v 0.294118 h -0.57745 c -0.06967,0 -0.116119,0.0015 -0.199575,0.0091 v -0.298464 z m 0.484404,0.906779 c 0,-0.127057 -0.119115,-0.137845 -0.222649,-0.137845 0,0.06203 -0.0031,0.120914 0.01693,0.160919 0.02173,0.0436 0.04944,0.07761 0.103533,0.07761 a 0.10158557,0.10158557 0 0 0 0.102185,-0.100686 z m -0.76294,0.840253 H 44.684649 V 44.07892 h 0.207516 z"
       fill="#ffffff"
       id="path52"
       style="stroke-width:0.149831" />
  </g>
</svg>
